<svg width="479" height="283" xmlns="http://www.w3.org/2000/svg" xmlns:xlink="http://www.w3.org/1999/xlink" xml:space="preserve" overflow="hidden"><defs><linearGradient x1="28.3825" y1="26.869" x2="108.329" y2="26.869" gradientUnits="userSpaceOnUse" spreadMethod="pad" id="fill0"><stop offset="0" stop-color="#17C9C0"/><stop offset="0.168" stop-color="#00A9D7"/><stop offset="0.564" stop-color="#1CD0BB"/><stop offset="1" stop-color="#0FBEC8"/></linearGradient><linearGradient x1="14.0195" y1="56.6587" x2="122.692" y2="56.6587" gradientUnits="userSpaceOnUse" spreadMethod="pad" id="fill1"><stop offset="0" stop-color="#17C9C0"/><stop offset="0.168" stop-color="#00A9D7"/><stop offset="0.564" stop-color="#1CD0BB"/><stop offset="1" stop-color="#0FBEC8"/></linearGradient><linearGradient x1="141.818" y1="26.869" x2="221.766" y2="26.869" gradientUnits="userSpaceOnUse" spreadMethod="pad" id="fill2"><stop offset="0" stop-color="#17C9C0"/><stop offset="0.168" stop-color="#00A9D7"/><stop offset="0.564" stop-color="#1CD0BB"/><stop offset="1" stop-color="#0FBEC8"/></linearGradient><linearGradient x1="127.455" y1="56.6587" x2="236.128" y2="56.6587" gradientUnits="userSpaceOnUse" spreadMethod="pad" id="fill3"><stop offset="0" stop-color="#17C9C0"/><stop offset="0.168" stop-color="#00A9D7"/><stop offset="0.564" stop-color="#1CD0BB"/><stop offset="1" stop-color="#0FBEC8"/></linearGradient><linearGradient x1="257.007" y1="26.869" x2="336.954" y2="26.869" gradientUnits="userSpaceOnUse" spreadMethod="pad" id="fill4"><stop offset="0" stop-color="#17C9C0"/><stop offset="0.168" stop-color="#00A9D7"/><stop offset="0.564" stop-color="#1CD0BB"/><stop offset="1" stop-color="#0FBEC8"/></linearGradient><linearGradient x1="242.643" y1="56.6587" x2="351.316" y2="56.6587" gradientUnits="userSpaceOnUse" spreadMethod="pad" id="fill5"><stop offset="0" stop-color="#17C9C0"/><stop offset="0.168" stop-color="#00A9D7"/><stop offset="0.564" stop-color="#1CD0BB"/><stop offset="1" stop-color="#0FBEC8"/></linearGradient><linearGradient x1="370.442" y1="26.869" x2="450.389" y2="26.869" gradientUnits="userSpaceOnUse" spreadMethod="pad" id="fill6"><stop offset="0" stop-color="#17C9C0"/><stop offset="0.168" stop-color="#00A9D7"/><stop offset="0.564" stop-color="#1CD0BB"/><stop offset="1" stop-color="#0FBEC8"/></linearGradient><linearGradient x1="356.08" y1="56.6587" x2="464.752" y2="56.6587" gradientUnits="userSpaceOnUse" spreadMethod="pad" id="fill7"><stop offset="0" stop-color="#17C9C0"/><stop offset="0.168" stop-color="#00A9D7"/><stop offset="0.564" stop-color="#1CD0BB"/><stop offset="1" stop-color="#0FBEC8"/></linearGradient><linearGradient x1="332.352" y1="117.316" x2="146.419" y2="117.316" gradientUnits="userSpaceOnUse" spreadMethod="pad" id="fill8"><stop offset="0" stop-color="#17C9C0"/><stop offset="0.168" stop-color="#00A9D7"/><stop offset="0.564" stop-color="#1CD0BB"/><stop offset="1" stop-color="#0FBEC8"/></linearGradient><linearGradient x1="146.419" y1="177.09" x2="332.352" y2="177.09" gradientUnits="userSpaceOnUse" spreadMethod="pad" id="fill9"><stop offset="0" stop-color="#17C9C0"/><stop offset="0.168" stop-color="#00A9D7"/><stop offset="0.564" stop-color="#1CD0BB"/><stop offset="1" stop-color="#0FBEC8"/></linearGradient></defs><g transform="translate(-243 -147)"><path d="M239.386 235.176C224.131 235.176 216.15 231.636 216.15 228.139 216.15 223.569 228.122 221.102 239.386 221.102 250.65 221.102 262.622 223.569 262.622 228.139 262.622 231.636 254.641 235.176 239.386 235.176ZM239.386 222.855C226.076 222.855 217.902 225.933 217.902 228.139 217.902 230.345 226.076 233.423 239.386 233.423 252.696 233.423 260.87 230.345 260.87 228.139 260.87 225.933 252.696 222.855 239.386 222.855ZM239.386 246.431C228.122 246.431 216.15 243.965 216.15 239.395L217.902 239.395C217.902 241.601 226.076 244.679 239.386 244.679 252.696 244.679 260.87 241.601 260.87 239.395L262.622 239.395C262.622 243.965 250.65 246.431 239.386 246.431ZM239.386 257.688C228.122 257.688 216.15 255.222 216.15 250.651L217.902 250.651C217.902 252.858 226.076 255.936 239.386 255.936 252.696 255.936 260.87 252.858 260.87 250.651L262.622 250.651C262.622 255.222 250.65 257.688 239.386 257.688ZM239.386 268.944C228.122 268.944 216.15 266.478 216.15 261.907L217.902 261.907C217.902 264.114 226.076 267.191 239.386 267.191 252.696 267.191 260.87 264.114 260.87 261.907L262.622 261.907C262.622 266.478 250.65 268.944 239.386 268.944Z" fill="#333333" transform="matrix(1 0 0 1.00097 243 147)"/><path d="M216.169 228.253 217.921 228.253 217.921 262.515 216.169 262.515ZM260.832 228.253 262.584 228.253 262.584 262.515 260.832 262.515ZM206.854 273.313 209.73 273.313C212.154 273.313 213.829 274.977 213.829 277.146L213.829 277.169C213.829 279.339 212.154 281.025 209.73 281.025L206.854 281.025 206.854 273.313ZM208.21 274.547 208.21 279.791 209.731 279.791C211.35 279.791 212.408 278.7 212.408 277.191L212.408 277.169C212.408 275.66 211.35 274.548 209.731 274.548L208.21 274.548ZM218.343 273.258 219.599 273.258 222.993 281.025 221.561 281.025 220.778 279.162 217.132 279.162 216.339 281.025 214.951 281.025 218.343 273.258ZM220.283 277.962 218.95 274.878 217.628 277.962 220.283 277.962ZM225.9 274.569 223.453 274.569 223.453 273.313 229.711 273.313 229.711 274.569 227.265 274.569 227.265 281.025 225.899 281.025 225.899 274.569ZM233.566 273.258 234.822 273.258 238.215 281.025 236.783 281.025 236 279.162 232.354 279.162 231.561 281.025 230.173 281.025 233.566 273.258ZM235.504 277.962 234.172 274.878 232.849 277.962 235.504 277.962ZM240.218 273.313 243.678 273.313C244.559 273.313 245.253 273.555 245.694 273.996 246.035 274.338 246.211 274.756 246.211 275.274L246.211 275.296C246.211 276.222 245.683 276.718 245.11 277.015 246.013 277.323 246.641 277.841 246.641 278.888L246.641 278.909C246.641 280.286 245.506 281.025 243.788 281.025L240.218 281.025 240.218 273.313ZM244.856 275.494C244.856 274.888 244.371 274.514 243.501 274.514L241.551 274.514 241.551 276.563 243.402 276.563C244.272 276.563 244.856 276.221 244.856 275.516L244.856 275.494ZM243.699 277.708 241.55 277.708 241.55 279.824 243.798 279.824C244.723 279.824 245.285 279.46 245.285 278.766L245.285 278.744C245.285 278.094 244.768 277.708 243.699 277.708ZM251.585 273.258 252.841 273.258 256.234 281.025 254.802 281.025 254.02 279.162 250.373 279.162 249.581 281.025 248.192 281.025 251.585 273.258ZM253.524 277.962 252.192 274.878 250.869 277.962 253.524 277.962ZM257.588 279.901 258.404 278.932C259.142 279.571 259.891 279.934 260.838 279.934 261.676 279.934 262.205 279.537 262.205 278.965L262.205 278.943C262.205 278.392 261.896 278.095 260.464 277.764 258.822 277.367 257.897 276.882 257.897 275.461L257.897 275.44C257.897 274.117 258.999 273.203 260.53 273.203 261.654 273.203 262.546 273.545 263.328 274.173L262.601 275.197C261.907 274.679 261.213 274.404 260.508 274.404 259.715 274.404 259.252 274.812 259.252 275.318L259.252 275.34C259.252 275.936 259.605 276.2 261.092 276.552 262.722 276.949 263.56 277.533 263.56 278.81L263.56 278.832C263.56 280.276 262.425 281.134 260.806 281.134 259.626 281.134 258.513 280.727 257.588 279.901ZM265.838 273.313 271.556 273.313 271.556 274.525 267.193 274.525 267.193 276.53 271.06 276.53 271.06 277.742 267.193 277.742 267.193 279.813 271.611 279.813 271.611 281.025 265.837 281.025 265.837 273.313Z" fill="#333333" transform="matrix(1 0 0 1.00097 243 147)"/><path d="M43.1322 25.6446 44.6305 25.6446 46.9549 31.5714 49.2681 25.6446 50.7331 25.6446 47.5384 33.4114 46.3374 33.4114 43.1322 25.6446ZM52.8144 25.6446 54.1696 25.6446 54.1696 33.3559 52.8144 33.3559 52.8144 25.6446ZM56.9116 25.6446 62.6298 25.6446 62.6298 26.8561 58.2668 26.8561 58.2668 28.8615 62.1339 28.8615 62.1339 30.073 58.2668 30.073 58.2668 32.1444 62.6847 32.1444 62.6847 33.3559 56.9116 33.3559 56.9116 25.6446ZM64.3793 25.6446 65.8444 25.6446 67.6839 31.3622 69.5788 25.6224 70.7249 25.6224 72.6199 31.3622 74.4594 25.6446 75.8806 25.6446 73.2035 33.4114 72.0252 33.4114 70.1303 27.8702 68.2353 33.4114 67.0676 33.4114 64.3793 25.6446ZM81.5731 29.5228 81.5731 29.5006C81.5731 27.2972 82.9172 25.5126 84.9442 25.5126 86.9601 25.5126 88.2931 27.2755 88.2931 29.4784L88.2931 29.5006C88.2931 31.7034 86.949 33.4885 84.922 33.4885 82.895 33.4885 81.5731 31.7256 81.5731 29.5228ZM86.8941 29.5228 86.8941 29.5006C86.8941 27.98 86.1119 26.7352 84.922 26.7352 83.7321 26.7352 82.9721 27.9473 82.9721 29.4784L82.9721 29.5006C82.9721 31.0211 83.7432 32.2653 84.9442 32.2653 86.1452 32.2653 86.8941 31.0316 86.8941 29.5228ZM91.5083 26.9665 90.1203 27.3521 89.8341 26.2504 91.916 25.5891 92.853 25.5891 92.853 33.3559 91.5089 33.3559 91.5089 26.9665ZM155.337 25.6446 156.835 25.6446 159.159 31.5714 161.473 25.6446 162.938 25.6446 159.743 33.4114 158.542 33.4114 155.337 25.6446ZM165.019 25.6446 166.374 25.6446 166.374 33.3559 165.019 33.3559 165.019 25.6446ZM169.116 25.6446 174.834 25.6446 174.834 26.8561 170.471 26.8561 170.471 28.8615 174.338 28.8615 174.338 30.073 170.471 30.073 170.471 32.1444 174.889 32.1444 174.889 33.3559 169.116 33.3559 169.116 25.6446ZM176.584 25.6446 178.05 25.6446 179.889 31.3622 181.784 25.6224 182.93 25.6224 184.824 31.3622 186.664 25.6446 188.086 25.6446 185.409 33.4114 184.229 33.4114 182.335 27.8702 180.44 33.4114 179.272 33.4114 176.584 25.6446ZM193.778 29.5228 193.778 29.5006C193.778 27.2972 195.122 25.5126 197.149 25.5126 199.165 25.5126 200.498 27.2755 200.498 29.4784L200.498 29.5006C200.498 31.7034 199.154 33.4885 197.127 33.4885 195.1 33.4885 193.778 31.7256 193.778 29.5228ZM199.099 29.5228 199.099 29.5006C199.099 27.98 198.316 26.7352 197.127 26.7352 195.937 26.7352 195.177 27.9473 195.177 29.4784L195.177 29.5006C195.177 31.0211 195.948 32.2653 197.149 32.2653 198.35 32.2653 199.099 31.0316 199.099 29.5228ZM202.237 32.2875 204.892 30.0292C205.95 29.1255 206.336 28.6413 206.336 27.9473 206.336 27.1868 205.795 26.7463 205.09 26.7463 204.385 26.7463 203.901 27.1318 203.317 27.9029L202.348 27.1424C203.086 26.1178 203.813 25.5336 205.19 25.5336 206.699 25.5336 207.734 26.4595 207.734 27.8363L207.734 27.8579C207.734 29.07 207.095 29.7307 205.729 30.8435L204.143 32.166 207.811 32.166 207.811 33.3553 202.237 33.3553 202.237 32.2875Z" fill="#333333" transform="matrix(1 0 0 1.00097 243 147)"/><path d="M269.128 25.6446 270.626 25.6446 272.95 31.5714 275.264 25.6446 276.729 25.6446 273.534 33.4114 272.333 33.4114 269.128 25.6446ZM278.81 25.6446 280.165 25.6446 280.165 33.3559 278.81 33.3559 278.81 25.6446ZM282.907 25.6446 288.625 25.6446 288.625 26.8561 284.262 26.8561 284.262 28.8615 288.129 28.8615 288.129 30.073 284.262 30.073 284.262 32.1444 288.679 32.1444 288.679 33.3559 282.906 33.3559 282.906 25.6446ZM290.375 25.6446 291.84 25.6446 293.68 31.3622 295.575 25.6224 296.721 25.6224 298.615 31.3622 300.454 25.6446 301.876 25.6446 299.199 33.4114 298.02 33.4114 296.125 27.8702 294.23 33.4114 293.063 33.4114 290.375 25.6446ZM307.568 29.5228 307.568 29.5006C307.568 27.2972 308.912 25.5126 310.939 25.5126 312.955 25.5126 314.288 27.2755 314.288 29.4784L314.288 29.5006C314.288 31.7034 312.944 33.4885 310.917 33.4885 308.89 33.4885 307.568 31.7256 307.568 29.5228ZM312.89 29.5228 312.89 29.5006C312.89 27.98 312.107 26.7352 310.918 26.7352 309.728 26.7352 308.967 27.9473 308.967 29.4784L308.967 29.5006C308.967 31.0211 309.738 32.2653 310.939 32.2653 312.14 32.2653 312.89 31.0316 312.89 29.5228ZM315.962 32.1339 316.909 31.2524C317.46 31.902 318.077 32.2653 318.936 32.2653 319.697 32.2653 320.269 31.8027 320.269 31.0976L320.269 31.076C320.269 30.3154 319.575 29.8861 318.496 29.8861L317.868 29.8861 317.648 29.0379 319.73 26.8234 316.391 26.8234 316.391 25.6446 321.492 25.6446 321.492 26.6575 319.343 28.8609C320.511 29.004 321.613 29.5993 321.613 31.0199L321.613 31.0421C321.613 32.4633 320.522 33.4879 318.914 33.4879 317.569 33.4885 316.611 32.9266 315.962 32.1339Z" fill="#333333" transform="matrix(1 0 0 1.00097 243 147)"/><path d="M382.092 25.6446 383.591 25.6446 385.915 31.5714 388.228 25.6446 389.694 25.6446 386.499 33.4114 385.298 33.4114 382.092 25.6446ZM391.775 25.6446 393.129 25.6446 393.129 33.3559 391.775 33.3559 391.775 25.6446ZM395.871 25.6446 401.589 25.6446 401.589 26.8561 397.226 26.8561 397.226 28.8615 401.093 28.8615 401.093 30.073 397.226 30.073 397.226 32.1444 401.644 32.1444 401.644 33.3559 395.871 33.3559 395.871 25.6446ZM403.34 25.6446 404.805 25.6446 406.645 31.3622 408.539 25.6224 409.685 25.6224 411.58 31.3622 413.42 25.6446 414.841 25.6446 412.164 33.4114 410.985 33.4114 409.09 27.8702 407.195 33.4114 406.027 33.4114 403.34 25.6446ZM420.533 29.5228 420.533 29.5006C420.533 27.2972 421.877 25.5126 423.904 25.5126 425.92 25.5126 427.253 27.2755 427.253 29.4784L427.253 29.5006C427.253 31.7034 425.909 33.4885 423.882 33.4885 421.855 33.4885 420.533 31.7256 420.533 29.5228ZM425.854 29.5228 425.854 29.5006C425.854 27.98 425.072 26.7352 423.882 26.7352 422.692 26.7352 421.932 27.9473 421.932 29.4784L421.932 29.5006C421.932 31.0211 422.703 32.2653 423.904 32.2653 425.105 32.2653 425.854 31.0316 425.854 29.5228ZM433.101 31.6263 429.213 31.6263 428.959 30.6572 433.245 25.5891 434.401 25.5891 434.401 30.5141 435.503 30.5141 435.503 31.6263 434.401 31.6263 434.401 33.3559 433.101 33.3559 433.101 31.6263ZM433.101 30.5141 433.101 27.4619 430.568 30.5141 433.101 30.5141Z" fill="#333333" transform="matrix(1 0 0 1.00097 243 147)"/><path d="M30.3452 52.6532 28.3825 52.6532 28.3825 1.43174 37.7259 1.43174 98.6354 1.08534 108.329 1.08534 108.329 52.2869 106.366 52.2869 106.366 3.04866 98.6413 3.04866 37.7312 3.39447 30.3452 3.39447Z" fill="url(#fill0)" transform="matrix(1 0 0 1.00097 243 147)"/><path d="M121.338 52.6526 119.267 58.9748C118.96 59.9124 116.973 60.6648 114.827 60.6648L21.885 60.6648C19.7383 60.6648 17.7522 59.913 17.4449 58.9748L15.3741 52.6526 121.338 52.6526Z" fill="#FFFFFF" transform="matrix(1 0 0 1.00097 243 147)"/><path d="M114.827 61.6461 21.885 61.6461C19.67 61.6461 17.0442 60.9054 16.5115 59.2803L14.0195 51.6712 122.692 51.6712 120.199 59.2803C119.667 60.906 117.041 61.6461 114.827 61.6461ZM16.7288 53.6346 18.3778 58.6687C18.5128 58.9684 19.8715 59.6822 21.8856 59.6822L114.827 59.6822C116.841 59.6822 118.199 58.9678 118.336 58.6635L119.983 53.6346 16.7288 53.6346Z" fill="url(#fill1)" transform="matrix(1 0 0 1.00097 243 147)"/><path d="M143.781 52.6532 141.818 52.6532 141.818 1.43174 151.161 1.43174 212.071 1.08534 221.766 1.08534 221.766 52.2869 219.802 52.2869 219.802 3.04866 212.077 3.04866 151.167 3.39447 143.781 3.39447Z" fill="url(#fill2)" transform="matrix(1 0 0 1.00097 243 147)"/><path d="M234.774 52.6526 232.703 58.9748C232.396 59.9124 230.409 60.6648 228.263 60.6648L135.321 60.6648C133.174 60.6648 131.188 59.913 130.881 58.9748L128.81 52.6526 234.774 52.6526Z" fill="#FFFFFF" transform="matrix(1 0 0 1.00097 243 147)"/><path d="M228.263 61.6461 135.321 61.6461C133.106 61.6461 130.48 60.9054 129.948 59.2803L127.455 51.6712 236.128 51.6712 233.636 59.2803C233.103 60.906 230.477 61.6461 228.263 61.6461ZM130.165 53.6346 131.814 58.6687C131.948 58.9684 133.307 59.6822 135.321 59.6822L228.262 59.6822C230.276 59.6822 231.635 58.9678 231.772 58.6635L233.419 53.6346 130.165 53.6346Z" fill="url(#fill3)" transform="matrix(1 0 0 1.00097 243 147)"/><path d="M258.97 52.6532 257.007 52.6532 257.007 1.43174 266.35 1.43174 327.259 1.08534 336.954 1.08534 336.954 52.2869 334.99 52.2869 334.99 3.04866 327.265 3.04866 266.356 3.39447 258.97 3.39447Z" fill="url(#fill4)" transform="matrix(1 0 0 1.00097 243 147)"/><path d="M349.962 52.6526 347.891 58.9748C347.584 59.9124 345.597 60.6648 343.451 60.6648L250.509 60.6648C248.363 60.6648 246.377 59.913 246.069 58.9748L243.998 52.6526 349.962 52.6526Z" fill="#FFFFFF" transform="matrix(1 0 0 1.00097 243 147)"/><path d="M343.451 61.6461 250.509 61.6461C248.295 61.6461 245.669 60.9054 245.137 59.2798L242.643 51.6712 351.316 51.6712 348.824 59.2803C348.292 60.906 345.666 61.6461 343.451 61.6461ZM245.353 53.6346 247.002 58.6687C247.137 58.969 248.496 59.6822 250.509 59.6822L343.451 59.6822C345.464 59.6822 346.823 58.9684 346.96 58.6641L348.607 53.6346 245.353 53.6346Z" fill="url(#fill5)" transform="matrix(1 0 0 1.00097 243 147)"/><path d="M372.406 52.6532 370.442 52.6532 370.442 1.43174 379.786 1.43174 440.696 1.08534 450.389 1.08534 450.389 52.2869 448.426 52.2869 448.426 3.04866 440.702 3.04866 379.791 3.39447 372.406 3.39447Z" fill="url(#fill6)" transform="matrix(1 0 0 1.00097 243 147)"/><path d="M463.398 52.6526 461.327 58.9748C461.02 59.9124 459.033 60.6648 456.887 60.6648L363.945 60.6648C361.799 60.6648 359.813 59.913 359.505 58.9748L357.434 52.6526 463.398 52.6526Z" fill="#FFFFFF" transform="matrix(1 0 0 1.00097 243 147)"/><path d="M456.887 61.6461 363.945 61.6461C361.731 61.6461 359.105 60.9054 358.572 59.2803L356.08 51.6712 464.752 51.6712 462.259 59.2803C461.727 60.906 459.102 61.6461 456.887 61.6461ZM358.789 53.6346 360.438 58.6687C360.572 58.9684 361.931 59.6822 363.945 59.6822L456.887 59.6822C458.901 59.6822 460.259 58.9678 460.396 58.6635L462.043 53.6346 358.789 53.6346Z" fill="url(#fill7)" transform="matrix(1 0 0 1.00097 243 147)"/><path d="M237.642 200.619 241.13 200.619 241.13 219.825 237.642 219.825Z" fill="#333333" transform="matrix(1 0 0 1.00097 243 147)"/><path d="M234.169 202.146 239.386 193.112 244.603 202.146Z" fill="#333333" transform="matrix(1 0 0 1.00097 243 147)"/><path d="M147.889 102.462 330.882 102.462 330.882 132.169 147.889 132.169Z" fill="#FFFFFF" transform="matrix(-1 -1.22583e-16 1.22465e-16 -1.00097 721.772 381.857)"/><path d="M332.352 133.639 146.419 133.639 146.419 100.992 332.352 100.992 332.352 133.639ZM149.36 130.699 329.412 130.699 329.412 103.932 149.36 103.932 149.36 130.699Z" fill="url(#fill8)" transform="matrix(1 0 0 1.00097 243 147)"/><path d="M190.2 113.949 191.556 113.949 191.556 120.427 195.61 120.427 195.61 121.661 190.2 121.661 190.2 113.949ZM196.919 117.828 196.919 117.805C196.919 115.635 198.594 113.817 200.963 113.817 203.331 113.817 204.984 115.613 204.984 117.783L204.984 117.805C204.984 119.975 203.309 121.793 200.94 121.793 198.572 121.793 196.919 119.998 196.919 117.828ZM203.563 117.828 203.563 117.805C203.563 116.307 202.472 115.062 200.94 115.062 199.409 115.062 198.34 116.285 198.34 117.783L198.34 117.805C198.34 119.303 199.431 120.537 200.963 120.537 202.494 120.537 203.563 119.325 203.563 117.828ZM206.965 117.828 206.965 117.805C206.965 115.646 208.618 113.817 210.942 113.817 212.287 113.817 213.113 114.192 213.906 114.864L213.046 115.889C212.451 115.382 211.868 115.062 210.887 115.062 209.466 115.062 208.387 116.307 208.387 117.783L208.387 117.805C208.387 119.392 209.433 120.56 211.008 120.56 211.736 120.56 212.397 120.328 212.871 119.975L212.871 118.533 210.898 118.533 210.898 117.353 214.181 117.353 214.181 120.592C213.421 121.242 212.331 121.793 210.964 121.793 208.552 121.793 206.965 120.075 206.965 117.828ZM216.702 113.949 218.057 113.949 218.057 121.661 216.702 121.661 216.702 113.949ZM220.457 117.828 220.457 117.805C220.457 115.613 222.099 113.817 224.435 113.817 225.856 113.817 226.715 114.313 227.454 115.018L226.583 116.021C225.966 115.448 225.305 115.062 224.424 115.062 222.959 115.062 221.879 116.274 221.879 117.783L221.879 117.805C221.879 119.315 222.948 120.537 224.424 120.537 225.372 120.537 225.978 120.163 226.638 119.546L227.509 120.428C226.704 121.265 225.823 121.794 224.38 121.794 222.133 121.793 220.457 120.041 220.457 117.828ZM232.343 113.894 233.598 113.894 236.992 121.661 235.56 121.661 234.778 119.798 231.131 119.798 230.338 121.661 228.95 121.661 232.343 113.894ZM234.282 118.598 232.949 115.514 231.627 118.598 234.282 118.598ZM238.995 113.949 240.35 113.949 240.35 120.427 244.404 120.427 244.404 121.661 238.995 121.661 238.995 113.949ZM250.483 113.949 251.838 113.949 251.838 120.427 255.892 120.427 255.892 121.661 250.483 121.661 250.483 113.949ZM257.984 113.949 263.702 113.949 263.702 115.161 259.339 115.161 259.339 117.166 263.206 117.166 263.206 118.378 259.339 118.378 259.339 120.449 263.757 120.449 263.757 121.661 257.984 121.661 257.984 113.949ZM265.385 113.949 266.884 113.949 269.208 119.876 271.521 113.949 272.987 113.949 269.791 121.716 268.59 121.716 265.385 113.949ZM274.99 113.949 280.709 113.949 280.709 115.161 276.346 115.161 276.346 117.166 280.212 117.166 280.212 118.378 276.346 118.378 276.346 120.449 280.763 120.449 280.763 121.661 274.99 121.661 274.99 113.949ZM283.053 113.949 284.408 113.949 284.408 120.427 288.462 120.427 288.462 121.661 283.053 121.661 283.053 113.949Z" fill="#333333" transform="matrix(1 0 0 1.00097 243 147)"/><path d="M237.642 142.274 241.13 142.274 241.13 161.479 237.642 161.479Z" fill="#333333" transform="matrix(1 0 0 1.00097 243 147)"/><path d="M234.169 143.8 239.386 134.766 244.603 143.8Z" fill="#333333" transform="matrix(1 0 0 1.00097 243 147)"/><path d="M147.889 162.237 330.882 162.237 330.882 191.944 147.889 191.944Z" fill="#FFFFFF" transform="matrix(1 0 0 1.00097 243 147)"/><path d="M332.352 193.413 146.419 193.413 146.419 160.766 332.352 160.766 332.352 193.413ZM149.36 190.473 329.412 190.473 329.412 163.707 149.36 163.707 149.36 190.473Z" fill="url(#fill9)" transform="matrix(1 0 0 1.00097 243 147)"/><path d="M186.908 173.726 189.948 173.726C191.755 173.726 192.879 174.75 192.879 176.304L192.879 176.325C192.879 178.055 191.491 178.958 189.794 178.958L188.263 178.958 188.263 181.437 186.908 181.437 186.908 173.726ZM189.838 177.736C190.862 177.736 191.501 177.163 191.501 176.359L191.501 176.337C191.501 175.434 190.852 174.961 189.838 174.961L188.262 174.961 188.262 177.736 189.838 177.736ZM194.948 173.726 196.302 173.726 196.302 176.931 199.982 176.931 199.982 173.726 201.337 173.726 201.337 181.437 199.982 181.437 199.982 178.187 196.302 178.187 196.302 181.437 194.948 181.437 194.948 173.726ZM206.271 178.397 203.209 173.726 204.817 173.726 206.965 177.13 209.147 173.726 210.7 173.726 207.637 178.363 207.637 181.437 206.271 181.437 206.271 178.397ZM211.668 180.314 212.483 179.345C213.222 179.984 213.97 180.347 214.918 180.347 215.756 180.347 216.284 179.95 216.284 179.378L216.284 179.356C216.284 178.805 215.976 178.508 214.544 178.177 212.902 177.78 211.977 177.295 211.977 175.874L211.977 175.853C211.977 174.53 213.078 173.616 214.61 173.616 215.733 173.616 216.626 173.958 217.408 174.586L216.681 175.61C215.987 175.092 215.293 174.817 214.588 174.817 213.795 174.817 213.332 175.225 213.332 175.731L213.332 175.753C213.332 176.349 213.685 176.613 215.172 176.965 216.802 177.362 217.64 177.946 217.64 179.223L217.64 179.245C217.64 180.689 216.505 181.547 214.885 181.547 213.706 181.547 212.593 181.14 211.668 180.314ZM219.995 173.726 221.35 173.726 221.35 181.437 219.995 181.437 219.995 173.726ZM223.751 177.604 223.751 177.582C223.751 175.389 225.393 173.594 227.728 173.594 229.15 173.594 230.009 174.09 230.747 174.795L229.877 175.797C229.259 175.225 228.599 174.839 227.718 174.839 226.252 174.839 225.173 176.05 225.173 177.559L225.173 177.582C225.173 179.091 226.242 180.314 227.718 180.314 228.665 180.314 229.271 179.939 229.932 179.322L230.802 180.204C229.998 181.042 229.116 181.57 227.673 181.57 225.426 181.57 223.751 179.818 223.751 177.604ZM235.636 173.671 236.892 173.671 240.286 181.438 238.853 181.438 238.071 179.575 234.424 179.575 233.632 181.438 232.244 181.438 235.636 173.671ZM237.575 178.374 236.242 175.29 234.92 178.374 237.575 178.374ZM242.288 173.726 243.643 173.726 243.643 180.203 247.697 180.203 247.697 181.437 242.288 181.437 242.288 173.726ZM253.776 173.726 255.131 173.726 255.131 180.203 259.185 180.203 259.185 181.437 253.775 181.437 253.775 173.726ZM261.277 173.726 266.995 173.726 266.995 174.937 262.632 174.937 262.632 176.943 266.499 176.943 266.499 178.154 262.632 178.154 262.632 180.226 267.049 180.226 267.049 181.437 261.276 181.437 261.276 173.726ZM268.679 173.726 270.177 173.726 272.501 179.652 274.815 173.726 276.28 173.726 273.085 181.493 271.884 181.493 268.679 173.726ZM278.284 173.726 284.002 173.726 284.002 174.937 279.639 174.937 279.639 176.943 283.505 176.943 283.505 178.154 279.639 178.154 279.639 180.226 284.056 180.226 284.056 181.437 278.283 181.437 278.283 173.726ZM286.346 173.726 287.701 173.726 287.701 180.203 291.755 180.203 291.755 181.437 286.346 181.437 286.346 173.726Z" fill="#333333" transform="matrix(1 0 0 1.00097 243 147)"/><path d="M226.765 100.71 223.277 100.71 223.277 93.2461C223.276 92.5188 222.687 91.93 221.96 91.9294L84.1328 91.9294C77.1354 91.9294 71.4428 86.2364 71.4428 79.2389L71.4428 74.5978 74.9302 74.5978 74.9302 79.2389C74.9302 84.3133 79.0584 88.4415 84.1328 88.4415L221.96 88.4415C224.61 88.4415 226.766 90.5964 226.766 93.2461L226.766 100.71Z" fill="#333333" transform="matrix(1 0 0 1.00097 243 147)"/><path d="M67.9695 76.1242 73.1865 67.0904 78.403 76.1242ZM237.191 100.71 233.704 100.71 233.704 90.5176C233.704 85.4431 229.575 81.3149 224.501 81.3149L191.642 81.3149C187.238 81.3149 183.213 79.0829 180.875 75.3444L183.832 73.495C185.528 76.2083 188.447 77.827 191.641 77.827L224.5 77.827C231.498 77.827 237.191 83.5201 237.191 90.5176L237.191 100.71Z" fill="#333333" transform="matrix(1 0 0 1.00097 243 147)"/><path d="M178.146 77.206 180.696 67.0904 188.182 74.3554Z" fill="#333333" transform="matrix(1 0 0 1.00097 243 147)"/><path d="M255.495 100.71 252.007 100.71 252.007 93.2461C252.007 90.597 254.162 88.4415 256.812 88.4415L394.639 88.4415C399.714 88.4415 403.842 84.3133 403.842 79.2389L403.842 74.5978 407.33 74.5978 407.33 79.2389C407.33 86.2364 401.637 91.9294 394.639 91.9294L256.812 91.9294C256.085 91.93 255.496 92.5194 255.495 93.2461L255.495 100.71Z" fill="#333333" transform="matrix(1 0 0 1.00097 243 147)"/><path d="M400.369 76.1242 405.586 67.0904 410.802 76.1242Z" fill="#333333" transform="matrix(1 0 0 1.00097 243 147)"/><path d="M245.068 100.71 241.58 100.71 241.58 90.5176C241.58 83.5201 247.273 77.827 254.271 77.827L287.13 77.827C290.324 77.827 293.243 76.2083 294.939 73.495L297.896 75.3444C295.558 79.0823 291.533 81.3149 287.129 81.3149L254.27 81.3149C249.196 81.3149 245.067 85.4431 245.067 90.5176L245.067 100.71Z" fill="#333333" transform="matrix(1 0 0 1.00097 243 147)"/><path d="M290.589 74.3554 298.076 67.0904 300.626 77.206Z" fill="#333333" transform="matrix(1 0 0 1.00097 243 147)"/></g></svg>